# 3ds Max Wavefront OBJ Exporter v0.97b - (c)2007 guruware
# 创建的文件:17.05.2016 13:34:21

#
# object Cylinder001
#

v  65.3231 -10.8765 -0.6631
v  62.9125 -10.8765 -18.2010
v  87.5238 -5.6122 -25.1303
v  90.8868 -5.6122 -0.6631
v  55.8597 -10.8765 -34.4382
v  77.6845 -5.6122 -47.7829
v  44.6877 -10.8765 -48.1704
v  62.0983 -5.6122 -66.9408
v  30.2251 -10.8765 -58.3793
v  41.9215 -5.6122 -81.1832
v  13.5444 -10.8765 -64.3076
v  18.6503 -5.6122 -89.4538
v  -4.1170 -10.8765 -65.5157
v  -5.9894 -5.6122 -91.1392
v  -64.0797 -10.8765 8.1882
v  -59.3035 -10.8765 25.2346
v  -82.9802 -5.6122 35.4668
v  -89.6434 -5.6122 11.6854
v  -50.1055 -10.8765 40.3602
v  -70.1480 -5.6122 56.5686
v  -37.1676 -10.8765 52.4433
v  -52.0983 -5.6122 73.4258
v  -21.4496 -10.8765 60.5877
v  -30.1701 -5.6122 84.7881
v  -4.1171 -10.8765 64.1894
v  -5.9894 -5.6122 89.8129
v  13.5444 -10.8765 62.9814
v  18.6502 -5.6122 88.1275
v  30.2251 -10.8765 57.0531
v  41.9214 -5.6122 79.8569
v  44.6877 -10.8765 46.8442
v  62.0983 -5.6122 65.6146
v  55.8597 -10.8765 33.1120
v  77.6844 -5.6122 46.4567
v  62.9125 -10.8765 16.8748
v  87.5238 -5.6122 23.8041
v  95.7276 -0.3479 -27.4401
v  99.4081 -0.3479 -0.6631
v  84.9594 -0.3479 -52.2311
v  67.9019 -0.3479 -73.1975
v  45.8203 -0.3479 -88.7845
v  20.3522 -0.3479 -97.8358
v  -6.6135 -0.3479 -99.6803
v  -90.8724 -0.3479 38.8776
v  -98.1647 -0.3479 12.8512
v  -76.8288 -0.3479 61.9714
v  -57.0752 -0.3479 80.4199
v  -33.0769 -0.3479 92.8549
v  -6.6135 -0.3479 98.3541
v  20.3522 -0.3479 96.5096
v  45.8203 -0.3479 87.4582
v  67.9019 -0.3479 71.8713
v  84.9593 -0.3479 50.9049
v  95.7276 -0.3479 26.1139
v  87.5239 4.9164 -25.1303
v  90.8868 4.9164 -0.6631
v  77.6845 4.9164 -47.7829
v  62.0983 4.9164 -66.9408
v  41.9215 4.9164 -81.1832
v  18.6503 4.9164 -89.4538
v  -5.9894 4.9164 -91.1392
v  -82.9802 4.9164 35.4668
v  -89.6434 4.9164 11.6854
v  -70.1480 4.9164 56.5686
v  -52.0984 4.9164 73.4258
v  -30.1701 4.9164 84.7881
v  -5.9894 4.9164 89.8129
v  18.6502 4.9164 88.1275
v  41.9214 4.9164 79.8569
v  62.0983 4.9164 65.6146
v  77.6844 4.9164 46.4567
v  87.5239 4.9164 23.8041
v  62.9125 10.1807 -18.2010
v  65.3231 10.1807 -0.6631
v  55.8597 10.1807 -34.4382
v  44.6877 10.1807 -48.1704
v  30.2251 10.1807 -58.3793
v  13.5444 10.1807 -64.3076
v  -4.1170 10.1807 -65.5157
v  -59.3035 10.1807 25.2346
v  -64.0797 10.1807 8.1882
v  -50.1055 10.1807 40.3602
v  -37.1676 10.1807 52.4433
v  -21.4496 10.1807 60.5877
v  -4.1171 10.1807 64.1894
v  13.5444 10.1807 62.9814
v  30.2251 10.1807 57.0531
v  44.6877 10.1807 46.8442
v  55.8597 10.1807 33.1120
v  62.9125 10.1807 16.8748
# 90 vertices

vn 0.2017 -0.9794 -0.0000
vn 0.1942 -0.9795 -0.0544
vn 0.3680 -0.9241 -0.1031
vn 0.3822 -0.9241 0.0000
vn 0.1722 -0.9795 -0.1047
vn 0.3264 -0.9242 -0.1985
vn 0.1375 -0.9795 -0.1472
vn 0.2606 -0.9243 -0.2790
vn 0.0926 -0.9795 -0.1786
vn 0.1756 -0.9244 -0.3387
vn 0.0410 -0.9796 -0.1968
vn 0.0776 -0.9245 -0.3731
vn 0.0138 -0.9792 -0.2022
vn 0.0262 -0.9232 -0.3835
vn -0.1942 -0.9794 0.0544
vn -0.1834 -0.9798 0.0797
vn -0.3481 -0.9252 0.1512
vn -0.3683 -0.9239 0.1032
vn -0.1552 -0.9798 0.1263
vn -0.2945 -0.9251 0.2397
vn -0.1154 -0.9797 0.1637
vn -0.2191 -0.9250 0.3105
vn -0.0671 -0.9797 0.1889
vn -0.1273 -0.9249 0.3584
vn -0.0136 -0.9796 0.2003
vn -0.0259 -0.9247 0.3798
vn 0.0410 -0.9796 0.1968
vn 0.0776 -0.9245 0.3731
vn 0.0926 -0.9795 0.1786
vn 0.1756 -0.9244 0.3387
vn 0.1375 -0.9795 0.1472
vn 0.2606 -0.9243 0.2790
vn 0.1722 -0.9795 0.1047
vn 0.3264 -0.9242 0.1985
vn 0.1942 -0.9795 0.0544
vn 0.3680 -0.9241 0.1031
vn 0.9629 -0.0000 -0.2699
vn 1.0000 0.0000 0.0000
vn 0.8543 0.0000 -0.5197
vn 0.6824 0.0000 -0.7310
vn 0.4598 -0.0000 -0.8880
vn 0.2032 0.0000 -0.9791
vn 0.0682 0.0000 -0.9977
vn -0.9173 -0.0000 0.3983
vn -0.9629 0.0000 0.2698
vn -0.7758 -0.0000 0.6309
vn -0.5769 -0.0000 0.8168
vn -0.3352 0.0000 0.9422
vn -0.0686 -0.0000 0.9976
vn 0.2032 0.0000 0.9791
vn 0.4598 0.0000 0.8880
vn 0.6824 -0.0000 0.7310
vn 0.8543 -0.0000 0.5197
vn 0.9629 -0.0000 0.2699
vn 0.3680 0.9241 -0.1031
vn 0.3822 0.9241 0.0000
vn 0.3264 0.9242 -0.1985
vn 0.2606 0.9243 -0.2790
vn 0.1756 0.9244 -0.3387
vn 0.0776 0.9245 -0.3731
vn 0.0262 0.9232 -0.3835
vn -0.3481 0.9252 0.1512
vn -0.3683 0.9239 0.1032
vn -0.2945 0.9251 0.2397
vn -0.2191 0.9250 0.3105
vn -0.1273 0.9249 0.3584
vn -0.0259 0.9247 0.3798
vn 0.0776 0.9245 0.3731
vn 0.1756 0.9244 0.3387
vn 0.2606 0.9243 0.2790
vn 0.3264 0.9242 0.1985
vn 0.3680 0.9241 0.1031
vn 0.1942 0.9795 -0.0544
vn 0.2017 0.9794 -0.0000
vn 0.1722 0.9795 -0.1047
vn 0.1375 0.9795 -0.1472
vn 0.0926 0.9795 -0.1786
vn 0.0410 0.9796 -0.1968
vn 0.0138 0.9792 -0.2022
vn -0.1834 0.9798 0.0797
vn -0.1942 0.9794 0.0544
vn -0.1552 0.9798 0.1263
vn -0.1154 0.9797 0.1637
vn -0.0671 0.9797 0.1889
vn -0.0136 0.9796 0.2003
vn 0.0410 0.9796 0.1968
vn 0.0926 0.9795 0.1786
vn 0.1375 0.9795 0.1472
vn 0.1722 0.9795 0.1047
vn 0.1942 0.9795 0.0544
# 90 vertex normals

vt 0.0057 0.3557 1.0000
vt 0.0057 0.2973 1.0000
vt 0.2539 0.2973 1.0000
vt 0.2539 0.3557 1.0000
vt 0.0057 0.2389 1.0000
vt 0.2539 0.2389 1.0000
vt 0.0057 0.1805 1.0000
vt 0.2539 0.1805 1.0000
vt 0.0057 0.1221 1.0000
vt 0.2539 0.1221 1.0000
vt 0.0057 0.0637 1.0000
vt 0.2539 0.0637 1.0000
vt 0.0057 0.0052 1.0000
vt 0.2539 0.0052 1.0000
vt 0.0057 0.9982 1.0000
vt 0.0057 0.9398 1.0000
vt 0.2539 0.9398 1.0000
vt 0.2539 0.9982 1.0000
vt 0.0057 0.8814 1.0000
vt 0.2539 0.8814 1.0000
vt 0.0057 0.8230 1.0000
vt 0.2539 0.8230 1.0000
vt 0.0057 0.7646 1.0000
vt 0.2539 0.7646 1.0000
vt 0.0057 0.7062 1.0000
vt 0.2539 0.7062 1.0000
vt 0.0057 0.6478 1.0000
vt 0.2539 0.6478 1.0000
vt 0.0057 0.5894 1.0000
vt 0.2539 0.5894 1.0000
vt 0.0057 0.5309 1.0000
vt 0.2539 0.5309 1.0000
vt 0.0057 0.4725 1.0000
vt 0.2539 0.4725 1.0000
vt 0.0057 0.4141 1.0000
vt 0.2539 0.4141 1.0000
vt 0.5022 0.2973 1.0000
vt 0.5022 0.3557 1.0000
vt 0.5022 0.2389 1.0000
vt 0.5022 0.1805 1.0000
vt 0.5022 0.1221 1.0000
vt 0.5022 0.0637 1.0000
vt 0.5022 0.0052 1.0000
vt 0.5022 0.9398 1.0000
vt 0.5022 0.9982 1.0000
vt 0.5022 0.8814 1.0000
vt 0.5022 0.8230 1.0000
vt 0.5022 0.7646 1.0000
vt 0.5022 0.7062 1.0000
vt 0.5022 0.6478 1.0000
vt 0.5022 0.5894 1.0000
vt 0.5022 0.5309 1.0000
vt 0.5022 0.4725 1.0000
vt 0.5022 0.4141 1.0000
vt 0.7505 0.2973 1.0000
vt 0.7505 0.3557 1.0000
vt 0.7505 0.2389 1.0000
vt 0.7505 0.1805 1.0000
vt 0.7505 0.1221 1.0000
vt 0.7505 0.0637 1.0000
vt 0.7505 0.0052 1.0000
vt 0.7505 0.9398 1.0000
vt 0.7505 0.9982 1.0000
vt 0.7505 0.8814 1.0000
vt 0.7505 0.8230 1.0000
vt 0.7505 0.7646 1.0000
vt 0.7505 0.7062 1.0000
vt 0.7505 0.6478 1.0000
vt 0.7505 0.5894 1.0000
vt 0.7505 0.5309 1.0000
vt 0.7505 0.4725 1.0000
vt 0.7505 0.4141 1.0000
vt 0.9987 0.2973 1.0000
vt 0.9987 0.3557 1.0000
vt 0.9987 0.2389 1.0000
vt 0.9987 0.1805 1.0000
vt 0.9987 0.1221 1.0000
vt 0.9987 0.0637 1.0000
vt 0.9987 0.0052 1.0000
vt 0.9987 0.9398 1.0000
vt 0.9987 0.9982 1.0000
vt 0.9987 0.8814 1.0000
vt 0.9987 0.8230 1.0000
vt 0.9987 0.7646 1.0000
vt 0.9987 0.7062 1.0000
vt 0.9987 0.6478 1.0000
vt 0.9987 0.5894 1.0000
vt 0.9987 0.5309 1.0000
vt 0.9987 0.4725 1.0000
vt 0.9987 0.4141 1.0000
# 90 texture coords

g Cylinder001
s 8
f 1/1/1 2/2/2 3/3/3 4/4/4 
f 2/2/2 5/5/5 6/6/6 3/3/3 
f 5/5/5 7/7/7 8/8/8 6/6/6 
f 7/7/7 9/9/9 10/10/10 8/8/8 
f 9/9/9 11/11/11 12/12/12 10/10/10 
f 11/11/11 13/13/13 14/14/14 12/12/12 
f 15/15/15 16/16/16 17/17/17 18/18/18 
f 16/16/16 19/19/19 20/20/20 17/17/17 
f 19/19/19 21/21/21 22/22/22 20/20/20 
f 21/21/21 23/23/23 24/24/24 22/22/22 
f 23/23/23 25/25/25 26/26/26 24/24/24 
f 25/25/25 27/27/27 28/28/28 26/26/26 
f 27/27/27 29/29/29 30/30/30 28/28/28 
f 29/29/29 31/31/31 32/32/32 30/30/30 
f 31/31/31 33/33/33 34/34/34 32/32/32 
f 33/33/33 35/35/35 36/36/36 34/34/34 
f 35/35/35 1/1/1 4/4/4 36/36/36 
f 4/4/4 3/3/3 37/37/37 38/38/38 
f 3/3/3 6/6/6 39/39/39 37/37/37 
f 6/6/6 8/8/8 40/40/40 39/39/39 
f 8/8/8 10/10/10 41/41/41 40/40/40 
f 10/10/10 12/12/12 42/42/42 41/41/41 
f 12/12/12 14/14/14 43/43/43 42/42/42 
f 18/18/18 17/17/17 44/44/44 45/45/45 
f 17/17/17 20/20/20 46/46/46 44/44/44 
f 20/20/20 22/22/22 47/47/47 46/46/46 
f 22/22/22 24/24/24 48/48/48 47/47/47 
f 24/24/24 26/26/26 49/49/49 48/48/48 
f 26/26/26 28/28/28 50/50/50 49/49/49 
f 28/28/28 30/30/30 51/51/51 50/50/50 
f 30/30/30 32/32/32 52/52/52 51/51/51 
f 32/32/32 34/34/34 53/53/53 52/52/52 
f 34/34/34 36/36/36 54/54/54 53/53/53 
f 36/36/36 4/4/4 38/38/38 54/54/54 
f 38/38/38 37/37/37 55/55/55 56/56/56 
f 37/37/37 39/39/39 57/57/57 55/55/55 
f 39/39/39 40/40/40 58/58/58 57/57/57 
f 40/40/40 41/41/41 59/59/59 58/58/58 
f 41/41/41 42/42/42 60/60/60 59/59/59 
f 42/42/42 43/43/43 61/61/61 60/60/60 
f 45/45/45 44/44/44 62/62/62 63/63/63 
f 44/44/44 46/46/46 64/64/64 62/62/62 
f 46/46/46 47/47/47 65/65/65 64/64/64 
f 47/47/47 48/48/48 66/66/66 65/65/65 
f 48/48/48 49/49/49 67/67/67 66/66/66 
f 49/49/49 50/50/50 68/68/68 67/67/67 
f 50/50/50 51/51/51 69/69/69 68/68/68 
f 51/51/51 52/52/52 70/70/70 69/69/69 
f 52/52/52 53/53/53 71/71/71 70/70/70 
f 53/53/53 54/54/54 72/72/72 71/71/71 
f 54/54/54 38/38/38 56/56/56 72/72/72 
f 56/56/56 55/55/55 73/73/73 74/74/74 
f 55/55/55 57/57/57 75/75/75 73/73/73 
f 57/57/57 58/58/58 76/76/76 75/75/75 
f 58/58/58 59/59/59 77/77/77 76/76/76 
f 59/59/59 60/60/60 78/78/78 77/77/77 
f 60/60/60 61/61/61 79/79/79 78/78/78 
f 63/63/63 62/62/62 80/80/80 81/81/81 
f 62/62/62 64/64/64 82/82/82 80/80/80 
f 64/64/64 65/65/65 83/83/83 82/82/82 
f 65/65/65 66/66/66 84/84/84 83/83/83 
f 66/66/66 67/67/67 85/85/85 84/84/84 
f 67/67/67 68/68/68 86/86/86 85/85/85 
f 68/68/68 69/69/69 87/87/87 86/86/86 
f 69/69/69 70/70/70 88/88/88 87/87/87 
f 70/70/70 71/71/71 89/89/89 88/88/88 
f 71/71/71 72/72/72 90/90/90 89/89/89 
f 72/72/72 56/56/56 74/74/74 90/90/90 
# 68 polygons

